<?xml version="1.0" standalone="no"?><!DOCTYPE svg PUBLIC "-//W3C//DTD SVG 1.1//EN" "http://www.w3.org/Graphics/SVG/1.1/DTD/svg11.dtd"><svg t="1779019535244" class="icon" viewBox="0 0 1024 1024" version="1.1" xmlns="http://www.w3.org/2000/svg" p-id="20524" xmlns:xlink="http://www.w3.org/1999/xlink" width="200" height="200"><path d="M1024 512c0 282.76736-229.22752 512-512 512S0 794.77248 0 512 229.22752 0 512 0s512 229.22752 512 512zM512 76.8c-240.35328 0-435.2 194.84672-435.2 435.20512 0 240.35328 194.84672 435.2 435.19488 435.2 240.35328 0 435.2-194.85184 435.2-435.2C947.2 271.64672 752.34816 76.8 512 76.8z" fill="#1296db" p-id="20525"></path><path d="M224.00512 608.01024v-60.00128h91.20256V233.61024c127.98976-1.57696 262.38464-10.38848 403.2-26.39872l21.60128 60.00128c-134.4 11.2128-253.61408 19.2-357.60128 24.00256v79.20128h391.19872v60.00128h-122.39872v117.60128h148.80256v60.00128H224.00512z m33.59744 163.2c-1.6128-1.6128-3.2256-4.80256-4.80256-9.6-12.8256-20.8128-22.4256-36.82304-28.8-48 78.37696-28.8 143.17568-58.38336 194.40128-88.80128l35.99872 50.40128c-76.79488 41.58464-142.41792 73.5744-196.79744 96z m124.8-340.80256v117.60128h204.00128V430.40768H382.40256z m376.80128 338.40128c-81.60256-43.20256-145.6128-73.5744-192-91.20256l33.60256-50.40128c24.00256 9.6 63.18592 27.22304 117.60128 52.80256 35.1744 14.40256 60.00128 24.78592 74.39872 31.20128l-33.60256 57.6z" fill="#1296db" p-id="20526"></path></svg>