<?xml version="1.0" standalone="no"?><!DOCTYPE svg PUBLIC "-//W3C//DTD SVG 1.1//EN" "http://www.w3.org/Graphics/SVG/1.1/DTD/svg11.dtd"><svg t="1779019276053" class="icon" viewBox="0 0 1024 1024" version="1.1" xmlns="http://www.w3.org/2000/svg" p-id="4893" xmlns:xlink="http://www.w3.org/1999/xlink" width="200" height="200"><path d="M512 0C229.906336 0 0 229.906336 0 512c0 282.093664 229.906336 512 512 512s512-229.906336 512-512C1022.589532 229.906336 792.683196 0 512 0z m0 959.118457C265.168044 959.118457 63.471074 758.831956 63.471074 512S265.168044 63.471074 512 63.471074 959.118457 265.168044 959.118457 512 758.831956 959.118457 512 959.118457z" fill="#1CB6F9" p-id="4894"></path><path d="M820.892562 229.906336l-169.256198 60.650138-118.479339 473.917355-173.487604-516.231405L200.286501 211.570248l-12.694214 57.829201 128.352617 29.619835 212.980716 634.710744c4.231405 11.283747 21.157025 11.283747 23.977961-1.410469l148.099174-598.038567 139.636363-50.77686-19.746556-53.597796z" fill="#1CB6F9" p-id="4895"></path></svg>