<?xml version="1.0" standalone="no"?><!DOCTYPE svg PUBLIC "-//W3C//DTD SVG 1.1//EN" "http://www.w3.org/Graphics/SVG/1.1/DTD/svg11.dtd"><svg t="1781624924545" class="icon" viewBox="0 0 1024 1024" version="1.1" xmlns="http://www.w3.org/2000/svg" p-id="4902" xmlns:xlink="http://www.w3.org/1999/xlink" width="200" height="200"><path d="M552.832 156.928a70.016 70.016 0 0 0-81.792 0L89.6 432.512v423.296a24.448 24.448 0 0 0 24.448 24.448h795.904A24.448 24.448 0 0 0 934.4 855.808V432.512z" fill="#FFFFFF" p-id="4903"></path><path d="M909.952 899.456H114.048a43.776 43.776 0 0 1-43.648-43.648V432.512a19.2 19.2 0 0 1 7.936-15.616L459.904 140.8a89.6 89.6 0 0 1 104.32 0l381.44 275.456a19.2 19.2 0 0 1 7.936 15.616v423.936a43.776 43.776 0 0 1-43.648 43.648zM108.8 442.24v413.44a5.248 5.248 0 0 0 5.248 5.248h795.904a5.248 5.248 0 0 0 5.248-5.248v-413.44L541.696 172.544a51.2 51.2 0 0 0-59.264 0z" fill="#501192" p-id="4904"></path><path d="M523.904 247.168H159.872v237.184l190.976 140.8L512 743.04l64-46.848v-396.8a51.968 51.968 0 0 0-52.096-52.224z" fill="#FFFFFF" p-id="4905"></path><path d="M512 766.848L339.456 640 140.8 493.952V227.968h383.104a71.296 71.296 0 0 1 71.168 71.168v406.784zM179.2 474.624l332.8 244.608 44.672-32.768V299.136a32.896 32.896 0 0 0-32.768-32.768H179.2z" fill="#501192" p-id="4906"></path><path d="M934.4 855.808v-7.04L550.4 519.68a58.624 58.624 0 0 0-76.8 0L89.6 848.768v7.04a24.448 24.448 0 0 0 24.448 24.448h795.904A24.448 24.448 0 0 0 934.4 855.808z" fill="#DED5EB" p-id="4907"></path><path d="M909.952 899.456H114.048a43.776 43.776 0 0 1-43.648-43.648v-15.872L460.8 505.088a77.44 77.44 0 0 1 101.376 0L953.6 839.936v15.872a43.776 43.776 0 0 1-43.648 43.648zM109.056 857.6a5.376 5.376 0 0 0 5.12 3.712h795.776a5.376 5.376 0 0 0 5.12-3.712L537.6 534.272a39.296 39.296 0 0 0-51.2 0z" fill="#501192" p-id="4908"></path><path d="M661.8112 609.5744l261.248-192.4608 22.784 30.912-261.248 192.4608zM78.2336 447.8848l22.784-30.912L362.24 609.4336l-22.784 30.912z" fill="#501192" p-id="4909"></path><path d="M259.072 324.48h236.8v38.4h-236.8zM259.072 415.744h108.8v38.4h-108.8zM403.2 415.744h34.688v38.4H403.2z" fill="#EC1561" p-id="4910"></path></svg>