<?xml version="1.0" standalone="no"?><!DOCTYPE svg PUBLIC "-//W3C//DTD SVG 1.1//EN" "http://www.w3.org/Graphics/SVG/1.1/DTD/svg11.dtd"><svg t="1779020230427" class="icon" viewBox="0 0 1024 1024" version="1.1" xmlns="http://www.w3.org/2000/svg" p-id="21748" xmlns:xlink="http://www.w3.org/1999/xlink" width="200" height="200"><path d="M487.905882 975.811765A487.905882 487.905882 0 1 1 487.966118-0.060235 487.905882 487.905882 0 0 1 487.905882 975.811765z m295.81553-783.600941A417.430588 417.430588 0 0 0 487.905882 69.692235a417.430588 417.430588 0 0 0-295.815529 122.518589 416.828235 416.828235 0 0 0-122.518588 295.815529 416.527059 416.527059 0 0 0 122.518588 295.755294A416.466824 416.466824 0 0 0 487.905882 906.300235a416.466824 416.466824 0 0 0 295.81553-122.518588 416.587294 416.587294 0 0 0 122.518588-295.755294 416.828235 416.828235 0 0 0-122.518588-295.815529z m-95.11153 541.81647H284.009412v31.322353h-59.994353V206.908235h527.781647v558.441412h-63.186824v-31.322353z m0-472.244706H284.009412v417.370353h404.60047V261.782588z m-231.664941 224.677647H344.003765v-50.416941h112.941176V358.821647h-129.505882v-52.344471h318.403765v52.344471H512.481882v77.221647h119.326118v50.416941H512.481882v94.448941H600.545882c-11.504941-19.757176-35.779765-48.489412-56.801882-69.571764l37.647059-20.419765c21.684706 19.817412 47.284706 48.549647 59.392 66.439529l-38.972235 23.552h56.801882v49.152H318.464v-49.152h138.480941V486.460235z" p-id="21749" fill="#1296db"></path></svg>